<svg viewBox="0 0 57 60" fill="none" xmlns="http://www.w3.org/2000/svg">
<path d="M0.161255 10.4234L1.06851 0L24.0927 2.7621L18.9717 14.2137L26.7943 21.2702L21.4314 27.2984L14.6572 20.9677L9.93948 28.3266L2.4798 24.0726L10.3225 11.0685L0.161255 10.4234Z" fill="black"/>
<path fill-rule="evenodd" clip-rule="evenodd" d="M44.4153 0.766113L44.2498 5.05209C45.2412 2.92549 47.3981 1.4516 49.8992 1.4516C53.3398 1.4516 56.129 4.24079 56.129 7.68144C56.129 9.75023 55.1206 11.5835 53.5685 12.7165V13.8508L44.4355 14.0927L44.5968 27.258H37.5L37.0161 14.254L27.8427 14.6572L27.5201 6.1895L36.754 6.02821L36.4919 0.766113H44.4153ZM49.8992 10.121C51.2019 10.121 52.258 9.06485 52.258 7.76208C52.258 6.45931 51.2019 5.40321 49.8992 5.40321C48.5964 5.40321 47.5403 6.45931 47.5403 7.76208C47.5403 9.06485 48.5964 10.121 49.8992 10.121Z" fill="black"/>
<path d="M34.6573 18.2661H28.7097V27.3387L34.8791 27.1371L34.6573 18.2661Z" fill="black"/>
<path d="M53.8105 18.0847H46.7339L47.4597 27.0767L53.8105 26.8549V18.0847Z" fill="black" stroke="black"/>
<path d="M0 41.4403L1.32557 34.7775L8.01657 37.6123L10.1627 31.6531L17.4218 33.4947L15.3177 39.6815L25.4174 43.2819L19.8836 59.9595L12.9612 58.7387L16.98 47.9169L11.5725 46.2822L6.7962 58.7387L0 57.1041L5.47062 43.6957L0 41.4403Z" fill="black"/>
<path d="M19.8204 35.957L22.6189 32.5015L30.8669 37.8607L26.7008 41.5024L19.8204 35.957Z" fill="black"/>
<path d="M29.0928 46.0949L46.0547 30.2822L53.6895 37.5393L41.5422 44.93L53.6895 52.7217L46.7799 59.9596L29.0928 46.0949Z" fill="black"/>
</svg>
