<svg width="5536" height="1502" viewBox="0 0 5536 1502" fill="none" xmlns="http://www.w3.org/2000/svg">
<path d="M4.5 258.5L27 0L598 68.5L471 352.5L665 527.5L532 677L364 520L247 702.5L62 597L256.5 274.5L4.5 258.5Z" fill="black"/>
<path fill-rule="evenodd" clip-rule="evenodd" d="M1102 19L1097.89 125.292C1122.48 72.5525 1175.97 36 1238 36C1323.33 36 1392.5 105.172 1392.5 190.5C1392.5 241.806 1367.49 287.271 1329 315.37V343.5L1102.5 349.5L1106.5 676H930.5L918.5 353.5L691 363.5L683 153.5L912 149.5L905.5 19H1102ZM1238 251C1270.31 251 1296.5 224.809 1296.5 192.5C1296.5 160.191 1270.31 134 1238 134C1205.69 134 1179.5 160.191 1179.5 192.5C1179.5 224.809 1205.69 251 1238 251Z" fill="black"/>
<path d="M860 453H712.5V678L865.5 673L860 453Z" fill="black"/>
<path d="M1335 448.5H1159.5L1177.5 671.5L1335 666V448.5Z" fill="black" stroke="black"/>
<path d="M1858 293L1537.5 325L1556 476L1875 467.5L1858 293Z" fill="black" stroke="black"/>
<path d="M2093.5 431.5L1995.5 104.5L2145 61L2228.5 394.5L2093.5 431.5Z" fill="black"/>
<path d="M2292 381L2201.5 60L2392 4.5L2422.5 336L2292 381Z" fill="black"/>
<path d="M2242 582.5L2563.5 135L2741.5 287L2347 678.5L2242 582.5Z" fill="black"/>
<path d="M0.5 1027.72L33.3742 862.487L199.311 932.789L252.536 785L432.561 830.671L380.38 984.105L630.85 1073.39L493.614 1487L321.937 1456.72L421.603 1188.34L287.497 1147.8L169.046 1456.72L0.5 1416.18L136.171 1083.66L0.5 1027.72Z" fill="black"/>
<path d="M492.048 891.737L561.449 806.039L766 938.947L662.681 1029.26L492.048 891.737Z" fill="black"/>
<path d="M722 1143.15L1142.66 751L1332 930.974L1030.75 1114.26L1332 1307.5L1160.64 1487L722 1143.15Z" fill="black"/>
<path d="M1621 751H1835L1839 923L2006 818L2097 1204L2239 1122.5L2226.5 1404.5L1976.5 1439.5L1878.5 1175L1839 1210L1842.5 1487H1649V1326.5L1545.5 1451.5L1422 1297L1613 1115L1408 1018.5L1477 837.5L1630 911.5L1621 751Z" fill="black"/>
<path d="M2321 1363.17L2579.5 751L2752 836.463L2555.5 1246.97L2713 1159.59L2810 1270.02L2966 1197.04L3059 1363.17L2763.5 1488L2661 1384.29L2501.5 1475.52L2321 1363.17Z" fill="black"/>
<path d="M3191 1479C3133 1306.6 3128.17 952.5 3133 797H3313.5C3289.9 951.8 3303.67 1302.5 3313.5 1458.5L3191 1479Z" fill="black"/>
<path fill-rule="evenodd" clip-rule="evenodd" d="M3406.5 802.5L3417.5 936.5H3590.5V979L3417.5 984.5L3422.5 1102L3590.5 1098L3593.5 1138C3502.5 1119.5 3339 1143.6 3335 1298C3331 1452.4 3481.33 1488 3557 1486.5C3601.33 1483.5 3698.9 1461.5 3734.5 1397.5L3813 1453.5L3904 1341C3881.5 1310 3806 1239.5 3734.5 1195.5L3728 1102H3774.5L3768.5 977.5H3723.5V928H3768.5L3764.5 785L3406.5 802.5ZM3599 1329.61C3588.07 1317 3551.47 1290.39 3527.59 1287.14C3497.73 1283.06 3467.48 1289.3 3472.56 1316.23C3476.07 1334.84 3559.78 1344.73 3599 1329.61Z" fill="black"/>
<path d="M3684 873L3674.5 719H3762V761.5L3824.5 719H3874L3870 873H3780V844L3730.5 873H3684Z" fill="black"/>
<path d="M4305.39 1170.76L4325.87 1114.43L4406.34 1150.27L4383.66 1206.6L4510.22 1270.98L4423.9 1479.47L4337.57 1433.38L4383.66 1335.35L4347.82 1309.02L4263.69 1463.38L4191.26 1423.14L4263.69 1270.98L4202.97 1240.98L4231.5 1150.27L4305.39 1170.76Z" fill="black"/>
<path d="M4431.94 843.021L4474.37 753.041L4554.84 795.47L4526.31 859.115L4671.16 929.344L4574.6 1136.37L4490.47 1098.33L4536.56 995.915L4490.47 968.116L4418.04 1126.13L4333.92 1086.63L4390.25 953.485L4315.63 917.639L4347.82 809.37L4431.94 843.021Z" fill="black"/>
<path d="M4042.76 905.934V742.799H4171.51V905.934H4263.69V1050.05H4161.27L4171.51 1479.47H4042.76V1050.05H3944V905.934H4042.76Z" fill="black"/>
<path d="M4588.5 1174.41L4620.68 1108.57L4704.81 1150.27L4674.82 1210.99L4801.38 1287.07L4704.81 1501.42L4606.78 1453.87L4657.26 1336.82L4620.68 1312.68L4536.56 1481.66L4461.94 1441.43L4548.26 1265.13L4472.18 1224.89L4510.22 1138.57L4588.5 1174.41Z" fill="black"/>
<path fill-rule="evenodd" clip-rule="evenodd" d="M5149.94 698L4771 1125.23L4849.28 1203.5L5005.83 1069.63V1125.23L5292.6 1139.86V1089.38L5445.49 1226.18L5535.47 1125.23L5149.94 698ZM5138.24 938.68L5033.63 1043.29L5230.41 1030.86L5138.24 938.68Z" fill="black"/>
<path fill-rule="evenodd" clip-rule="evenodd" d="M4917.31 1169.85L4905.61 1288.36L4979.49 1275.92L4905.61 1432.48L4951.69 1499.05L5288.94 1432.48L5330.64 1499.05L5441.1 1432.48L5338.68 1296.41L5395.01 1288.36L5383.31 1185.94L4917.31 1169.85ZM5095.81 1270.07L5065.81 1334.45L5206.27 1316.16L5174.08 1270.07H5095.81Z" fill="black"/>
</svg>
