<?xml version="1.0" standalone="no"?>
<!DOCTYPE svg PUBLIC "-//W3C//DTD SVG 20010904//EN"
 "http://www.w3.org/TR/2001/REC-SVG-20010904/DTD/svg10.dtd">
<svg version="1.0" xmlns="http://www.w3.org/2000/svg"
 width="960.000000pt" height="960.000000pt" viewBox="0 0 960.000000 960.000000"
 preserveAspectRatio="xMidYMid meet">
<metadata>
Created by potrace 1.14, written by Peter Selinger 2001-2017
</metadata>
<g transform="translate(0.000000,960.000000) scale(0.100000,-0.100000)"
fill="#000000" stroke="none">
<path d="M408 9570 c-3 -59 -11 -143 -22 -255 -5 -39 -14 -156 -21 -245 -5
-63 -14 -165 -20 -232 -3 -32 -7 -86 -10 -120 -3 -35 -8 -88 -11 -118 -3 -30
-7 -75 -9 -100 -2 -25 -7 -72 -10 -105 -7 -73 -15 -169 -21 -250 -2 -33 -7
-95 -10 -137 l-6 -78 38 -1 c22 0 62 -2 89 -4 28 -2 88 -6 135 -9 47 -3 119
-7 160 -10 41 -3 122 -8 180 -12 58 -3 125 -8 150 -9 25 -2 92 -6 150 -10 58
-3 130 -8 160 -10 30 -3 102 -8 160 -11 58 -3 134 -7 170 -10 36 -2 97 -6 135
-8 39 -2 76 -5 82 -5 12 -1 -22 -74 -50 -110 -13 -15 -33 -48 -43 -71 -4 -8
-27 -46 -51 -83 -23 -37 -43 -70 -43 -72 0 -3 -21 -37 -46 -76 -25 -40 -49
-79 -52 -88 -3 -9 -10 -20 -14 -26 -23 -28 -56 -85 -50 -85 4 0 2 -4 -3 -8 -9
-6 -71 -104 -110 -174 -5 -10 -57 -95 -115 -190 -58 -94 -107 -177 -109 -182
-2 -6 -21 -37 -43 -68 -21 -31 -38 -60 -38 -63 0 -3 -17 -32 -37 -63 -20 -31
-41 -66 -48 -77 -17 -31 -108 -183 -127 -213 -10 -15 -21 -34 -25 -42 -3 -8
-21 -37 -38 -65 -18 -27 -49 -79 -70 -115 -21 -36 -53 -87 -70 -115 -52 -82
-58 -96 -46 -108 6 -6 11 -7 11 -2 0 4 8 1 18 -7 9 -8 42 -29 72 -45 30 -17
73 -40 95 -53 22 -13 60 -34 85 -48 25 -14 62 -36 82 -49 21 -12 42 -23 47
-23 5 0 11 -3 13 -7 2 -5 19 -16 38 -25 19 -10 55 -29 80 -44 111 -65 156 -91
170 -97 8 -4 29 -15 45 -26 17 -10 48 -28 70 -41 22 -12 102 -58 178 -101 75
-44 142 -79 147 -79 6 0 10 -4 10 -10 0 -31 35 12 130 158 58 90 110 171 115
180 6 9 12 19 15 22 3 3 11 17 17 33 7 15 17 27 23 27 5 0 10 5 10 10 0 6 28
54 63 108 35 53 81 125 103 159 93 148 164 259 172 268 4 6 19 29 32 53 13 23
27 42 32 42 4 0 8 6 8 14 0 8 6 21 13 28 8 7 19 24 26 36 8 15 17 20 25 15 13
-7 140 -124 296 -273 32 -30 104 -98 161 -150 56 -52 119 -111 139 -130 20
-19 88 -82 150 -140 62 -58 134 -125 160 -150 26 -25 75 -71 108 -102 l61 -57
53 61 c68 77 79 89 163 183 92 103 100 112 165 186 72 82 140 158 165 184 11
12 45 50 75 85 30 35 76 87 102 115 25 27 57 64 69 80 13 17 34 38 46 48 l23
18 -44 42 c-25 23 -75 69 -111 102 -73 65 -156 140 -250 225 -33 30 -101 91
-150 135 -49 44 -103 93 -120 108 -16 16 -55 51 -85 77 -30 26 -69 61 -85 77
-17 15 -55 50 -85 77 -124 109 -215 193 -247 224 -18 18 -33 30 -33 26 0 -4
-8 4 -18 17 -20 26 -25 59 -9 59 6 0 7 3 4 7 -4 3 0 15 10 25 9 10 13 18 10
18 -5 0 14 44 99 228 19 41 34 75 34 77 0 2 13 32 29 67 34 74 198 441 214
478 5 14 10 28 9 33 -1 4 3 7 8 7 6 0 10 5 10 11 0 5 9 29 19 52 11 23 30 67
44 97 35 78 65 146 98 218 16 35 29 65 29 68 0 4 65 146 81 176 5 10 9 25 9
33 0 8 4 15 9 15 5 0 12 12 15 26 4 15 21 55 38 90 17 35 29 66 27 69 -3 2
-25 7 -50 9 -24 3 -62 8 -84 11 -94 12 -112 15 -157 20 -26 3 -62 7 -80 10
-18 2 -58 7 -88 10 -30 3 -70 7 -89 10 -18 2 -51 5 -72 7 -21 1 -39 4 -39 7 0
4 -15 6 -32 7 -37 0 -144 11 -192 18 -17 3 -53 8 -81 11 -27 2 -59 7 -70 9
-12 2 -50 7 -86 10 -36 4 -78 9 -94 12 -15 3 -51 7 -79 9 -53 5 -104 11 -171
19 -22 3 -62 8 -90 11 -27 3 -66 8 -85 11 -19 2 -51 7 -70 9 -77 9 -147 17
-180 21 -19 2 -53 6 -75 8 -68 9 -139 18 -165 21 -14 1 -56 6 -95 10 -38 4
-79 9 -90 11 -30 6 -85 13 -145 19 -30 3 -73 7 -95 10 -22 3 -60 8 -85 11 -25
3 -56 6 -70 8 -14 2 -54 7 -90 10 -36 4 -76 9 -90 11 -14 2 -50 7 -80 10 -60
7 -108 13 -155 19 -102 13 -164 20 -192 20 -18 1 -33 3 -33 6 0 3 -12 5 -27 6
-25 1 -88 7 -178 19 -133 18 -125 19 -127 -15z"/>
<path d="M6085 9356 c4 -118 10 -232 20 -406 3 -47 7 -137 10 -200 l6 -115
-93 -1 c-103 -1 -813 -14 -1033 -19 -77 -2 -187 -4 -246 -4 l-105 -1 2 -62 c2
-61 12 -319 20 -518 2 -52 6 -167 9 -255 3 -88 8 -203 9 -255 9 -234 11 -260
21 -261 21 -2 103 0 235 6 74 4 176 9 225 11 103 4 297 12 435 18 356 16 423
19 489 20 l74 1 3 -80 c2 -88 12 -329 19 -525 3 -69 7 -181 10 -250 2 -69 7
-195 10 -280 15 -387 25 -681 29 -818 2 -57 8 -108 14 -114 12 -12 433 -15
451 -3 6 3 11 2 11 -3 0 -9 81 -8 106 2 8 3 14 2 14 -2 0 -8 483 -7 505 2 8 3
15 1 15 -4 0 -5 6 -7 13 -5 13 6 13 0 2 740 -3 187 -5 345 -5 350 0 6 1 36 3
68 1 31 -1 57 -5 57 -4 0 -3 11 2 25 6 15 6 26 0 30 -7 4 -6 13 0 26 6 10 7
19 3 19 -4 0 -8 11 -8 25 0 14 4 25 9 25 5 0 5 5 0 13 -5 6 -9 174 -9 372 l0
359 46 3 c25 1 133 4 241 6 107 2 200 7 206 11 7 4 12 3 12 -1 0 -10 53 -9 69
1 5 4 12 2 16 -4 4 -6 11 -7 17 -3 7 3 82 8 167 9 215 4 535 13 541 14 3 1 35
2 73 2 l67 0 1 37 c0 20 0 61 -1 92 -1 49 2 58 23 72 40 26 140 128 192 197
65 85 129 219 162 338 23 85 26 115 27 252 0 118 -5 171 -18 220 -10 36 -19
72 -21 80 -9 41 -84 203 -97 208 -5 2 -8 9 -8 16 0 6 -13 27 -30 46 -16 19
-29 39 -30 44 -1 29 -281 266 -314 266 -3 0 -33 13 -68 29 -67 32 -175 65
-248 77 -55 9 -252 10 -300 2 -51 -9 -133 -28 -150 -35 -8 -3 -23 -8 -32 -9
-26 -5 -172 -77 -176 -86 -2 -4 -8 -8 -14 -8 -37 0 -251 -197 -295 -271 -10
-16 -21 -29 -25 -29 -4 0 -8 -6 -8 -14 0 -8 -6 -21 -12 -28 -7 -7 -21 -29 -30
-48 -18 -39 -18 -34 -2 370 3 91 7 190 8 220 l1 55 -632 1 -632 1 4 -121z
m2272 -648 c35 -12 63 -25 63 -30 0 -4 5 -8 11 -8 5 0 30 -18 54 -41 51 -48
101 -145 110 -214 8 -57 8 -58 6 -65 -1 -3 -4 -24 -6 -47 -4 -46 -41 -136 -71
-173 -53 -63 -141 -125 -196 -136 -87 -17 -143 -15 -233 9 -34 10 -100 53
-137 91 -47 47 -89 122 -105 186 -6 26 -5 148 2 159 3 6 8 22 11 36 8 43 60
122 112 169 23 21 122 79 122 72 0 -2 19 2 42 8 57 17 140 11 215 -16z"/>
<path d="M7634 6778 c-3 -5 -3 -28 0 -51 3 -23 8 -78 11 -122 3 -44 8 -100 11
-125 2 -25 7 -79 10 -120 3 -41 7 -100 10 -130 2 -30 6 -80 9 -110 2 -30 6
-82 9 -115 3 -33 8 -105 12 -160 6 -93 11 -150 14 -150 0 0 3 -34 5 -75 3 -41
7 -97 10 -125 2 -27 8 -88 11 -135 4 -47 8 -96 9 -110 2 -14 3 -35 4 -46 1
-18 6 -21 34 -19 17 2 127 6 242 10 116 3 248 8 295 10 72 3 421 15 555 19
l40 1 3 781 2 780 -646 0 c-355 0 -648 -4 -650 -8z"/>
<path d="M4838 6666 c0 -6 -2 -332 -3 -723 -1 -496 2 -713 9 -714 17 -1 191 3
301 7 55 1 188 6 295 9 107 4 236 8 285 9 l90 2 -2 205 c-1 112 -5 294 -7 404
-3 110 -8 319 -11 465 -4 146 -7 283 -9 305 l-2 40 -472 1 c-332 0 -472 -2
-474 -10z"/>
<path d="M7544 4696 c-29 -28 -92 -88 -141 -133 -49 -46 -105 -97 -124 -115
-19 -18 -71 -67 -115 -108 -85 -79 -301 -280 -365 -340 -49 -46 -241 -226
-288 -269 -20 -18 -68 -63 -107 -100 -39 -36 -122 -113 -184 -171 -62 -58
-132 -123 -155 -145 -24 -22 -89 -83 -145 -135 -57 -52 -126 -117 -154 -143
-28 -27 -91 -85 -140 -130 -49 -45 -110 -102 -136 -127 -26 -25 -95 -90 -155
-145 -59 -55 -130 -122 -158 -148 -28 -26 -91 -85 -140 -130 -138 -125 -155
-147 -122 -147 8 0 15 -3 15 -8 0 -4 33 -32 73 -62 39 -30 77 -59 83 -65 6 -5
26 -21 44 -35 18 -14 43 -33 54 -42 12 -10 71 -56 131 -102 61 -47 125 -98
144 -113 19 -16 65 -52 103 -81 38 -29 167 -130 287 -225 120 -95 233 -183
251 -197 18 -14 79 -61 134 -104 56 -44 126 -99 156 -123 30 -24 60 -47 65
-51 6 -4 42 -32 80 -62 39 -30 72 -57 75 -60 3 -3 38 -30 78 -60 39 -30 72
-58 72 -62 0 -5 6 -8 14 -8 8 0 16 -3 18 -8 2 -5 94 -80 173 -139 6 -5 24 -19
41 -33 17 -14 45 -36 64 -50 40 -30 180 -141 200 -158 18 -14 262 -206 310
-242 18 -14 57 -44 88 -67 30 -24 56 -43 58 -43 2 0 23 21 46 46 24 26 81 86
128 135 47 48 150 156 230 240 80 83 172 180 205 214 33 34 121 127 195 205
74 78 160 168 190 199 30 31 68 71 83 87 l28 31 -123 77 c-68 43 -163 104
-213 136 -49 33 -111 72 -137 86 -27 15 -48 31 -48 36 0 4 -4 8 -10 8 -11 0
-234 142 -238 152 -2 5 -8 8 -13 8 -8 0 -200 121 -271 171 -15 10 -32 19 -38
19 -5 0 -10 4 -10 8 0 5 -15 16 -32 25 -36 19 -70 39 -78 47 -13 13 -232 150
-241 150 -5 0 -9 4 -9 8 0 5 -17 17 -37 28 -36 18 -43 23 -77 52 -8 6 -18 12
-20 12 -3 0 -56 33 -118 73 -62 41 -139 90 -172 111 l-59 37 79 48 c44 26 142
86 219 133 489 298 639 388 646 388 4 0 9 3 11 8 2 4 37 27 78 51 41 25 83 51
93 59 9 8 17 12 17 8 0 -4 6 -2 13 4 14 12 117 80 122 80 1 0 79 46 171 103
93 57 180 110 194 118 14 8 27 16 30 19 3 3 17 12 32 20 100 56 228 137 228
145 0 6 -50 57 -111 115 -62 58 -140 132 -175 165 -82 79 -310 295 -383 365
-87 82 -344 326 -446 424 -49 47 -94 85 -100 85 -5 -1 -33 -24 -61 -53z"/>
<path d="M1851 4498 c-5 -18 -23 -71 -41 -118 -17 -47 -36 -96 -40 -110 -5
-14 -26 -74 -48 -135 -22 -60 -61 -168 -86 -240 -26 -71 -56 -152 -66 -180
-10 -27 -24 -67 -31 -87 -7 -21 -19 -38 -27 -38 -7 0 -37 11 -65 24 -29 13
-124 54 -212 91 -88 37 -166 72 -172 77 -7 6 -13 8 -13 5 0 -6 -39 9 -132 52
-26 11 -49 21 -52 21 -3 0 -29 11 -58 24 -119 55 -217 94 -222 88 -3 -3 -6 0
-6 6 0 7 -6 12 -13 12 -7 0 -30 9 -52 20 -41 21 -64 25 -66 13 -1 -5 -3 -17
-5 -28 -1 -11 -5 -31 -9 -45 -3 -14 -7 -36 -10 -50 -2 -14 -8 -45 -14 -70 -5
-25 -12 -58 -15 -75 -3 -16 -8 -41 -12 -55 -3 -14 -7 -38 -10 -55 -2 -16 -15
-84 -29 -150 -15 -66 -28 -131 -30 -145 -2 -14 -7 -36 -9 -50 -8 -38 -15 -72
-20 -100 -3 -14 -9 -47 -15 -75 -6 -27 -13 -61 -16 -75 -2 -14 -7 -37 -10 -51
-5 -21 -1 -28 22 -38 50 -23 507 -213 546 -227 21 -8 67 -27 102 -43 36 -17
65 -27 65 -24 0 3 6 1 13 -4 6 -5 38 -20 70 -33 39 -15 55 -26 48 -34 -5 -6
-12 -22 -16 -36 -4 -14 -16 -43 -25 -65 -10 -22 -48 -114 -85 -205 -36 -91
-70 -174 -75 -185 -33 -75 -52 -121 -54 -130 -2 -5 -8 -21 -13 -35 -6 -14 -36
-88 -67 -165 -31 -77 -61 -149 -66 -160 -5 -11 -30 -72 -55 -135 -25 -63 -50
-124 -55 -135 -5 -11 -21 -49 -36 -85 -14 -36 -31 -76 -37 -90 -6 -14 -11 -27
-12 -30 -1 -3 -5 -14 -10 -25 -4 -11 -23 -58 -42 -105 -19 -47 -43 -104 -54
-127 -10 -24 -19 -49 -19 -57 0 -8 -5 -18 -10 -21 -6 -4 -8 -11 -5 -16 4 -5 1
-9 -4 -9 -6 0 -10 -3 -9 -7 1 -9 -5 -25 -34 -93 -11 -25 -26 -61 -33 -80 -7
-19 -22 -58 -34 -87 l-20 -52 37 -6 c20 -4 44 -9 52 -12 8 -3 26 -8 40 -10 14
-2 48 -11 75 -19 28 -8 51 -14 53 -14 1 0 3 0 5 -1 1 0 10 -2 21 -4 10 -2 41
-9 70 -16 28 -7 53 -14 56 -14 3 -1 19 -4 35 -8 17 -4 39 -9 50 -12 11 -2 47
-11 80 -20 33 -9 69 -18 80 -20 11 -1 40 -8 65 -14 25 -6 56 -14 70 -17 14 -3
52 -12 85 -21 33 -8 67 -16 75 -18 8 -2 43 -10 77 -18 l61 -15 39 102 c21 55
37 104 35 109 -1 4 3 7 8 7 6 0 10 6 10 14 0 8 13 47 29 88 16 40 41 105 56
143 15 39 36 92 47 120 11 27 21 54 23 60 1 5 7 24 14 40 6 17 19 50 28 75 9
25 19 50 23 55 4 6 19 46 35 90 15 44 32 86 38 93 5 6 7 12 3 12 -4 0 0 13 9
30 8 16 15 31 14 32 -1 2 6 20 15 42 9 21 16 40 16 42 0 1 5 15 12 31 6 15 12
30 13 33 2 10 66 175 75 195 5 11 26 65 46 120 20 55 42 114 49 130 16 37 27
67 30 80 2 8 42 110 70 180 4 11 9 26 11 34 7 37 30 37 134 0 14 -5 34 -11 45
-13 11 -3 49 -14 84 -25 35 -12 67 -21 72 -21 4 0 20 -5 36 -12 15 -6 34 -12
41 -14 19 -4 154 -44 172 -51 8 -3 24 -8 35 -10 11 -2 27 -6 35 -10 8 -3 17
-7 20 -7 3 -1 49 -14 103 -30 107 -32 109 -34 77 -103 -10 -24 -16 -43 -13
-43 3 0 1 -6 -4 -13 -6 -6 -23 -48 -38 -92 -15 -44 -46 -125 -67 -180 -22 -55
-41 -104 -42 -110 -4 -20 -29 -90 -35 -100 -3 -5 -6 -14 -7 -20 -1 -5 -19 -53
-39 -105 -20 -52 -38 -99 -39 -105 -2 -5 -7 -19 -11 -30 -23 -58 -56 -147 -76
-205 -12 -36 -26 -69 -29 -75 -4 -5 -11 -21 -15 -35 -4 -14 -36 -104 -72 -200
-36 -96 -76 -206 -90 -245 -14 -38 -29 -78 -34 -88 -5 -9 -6 -17 -2 -18 76
-10 161 -24 263 -44 13 -3 42 -7 64 -11 22 -3 44 -8 48 -11 5 -2 27 -6 51 -8
23 -1 53 -5 67 -9 14 -3 39 -7 55 -10 17 -2 37 -6 45 -9 8 -3 33 -8 55 -11 22
-3 51 -8 65 -11 14 -3 39 -7 55 -10 17 -2 55 -9 85 -14 56 -11 69 -13 178 -32
36 -7 67 -8 72 -3 7 7 62 162 74 209 2 6 6 17 9 25 3 8 38 114 78 235 40 121
106 319 146 440 41 121 76 227 78 235 4 18 54 169 62 190 4 8 8 22 9 30 2 8
18 58 36 111 18 54 34 101 35 105 3 11 72 213 80 234 3 8 7 20 8 25 4 14 45
137 52 155 3 8 7 20 8 25 2 6 18 55 36 110 18 55 34 103 35 108 1 4 3 9 4 12
1 3 3 8 4 13 1 4 7 17 14 28 6 12 9 24 5 27 -3 4 0 13 7 22 7 8 9 15 5 15 -4
0 -3 6 2 12 8 11 17 36 28 78 2 10 37 116 42 130 4 8 7 17 7 20 1 3 5 11 9 18
5 6 6 12 2 12 -3 0 -1 8 4 18 9 16 2 21 -52 39 -34 12 -107 38 -162 58 -55 20
-104 37 -110 39 -5 2 -17 6 -25 9 -8 3 -55 20 -105 37 -162 57 -200 71 -215
77 -8 3 -17 7 -20 8 -18 4 -88 28 -105 35 -26 11 -58 22 -70 26 -18 4 -470
166 -490 175 -22 9 -104 38 -120 42 -5 2 -32 11 -60 21 -27 10 -55 20 -62 21
-8 3 -4 26 12 77 23 72 121 359 132 388 3 8 7 20 9 25 1 6 25 78 54 160 80
233 110 326 110 339 0 7 -28 18 -62 26 -35 7 -67 14 -73 16 -147 40 -240 62
-247 58 -4 -3 -8 -1 -8 4 0 5 -6 9 -12 10 -7 0 -22 3 -33 5 -11 3 -172 44
-358 91 -186 47 -344 86 -352 86 -8 0 -18 -15 -24 -32z"/>
<path d="M3810 4338 c-28 -35 -65 -79 -81 -98 -15 -19 -52 -65 -81 -101 -70
-87 -131 -161 -143 -175 -5 -6 -19 -23 -30 -39 -11 -15 -30 -38 -42 -50 l-22
-23 38 -34 c77 -67 103 -88 111 -88 5 0 10 -4 12 -8 2 -4 59 -53 128 -108 69
-54 130 -103 136 -109 6 -5 25 -21 43 -35 18 -14 41 -32 52 -42 11 -9 39 -31
61 -50 23 -18 70 -55 104 -83 34 -27 78 -63 99 -80 21 -16 50 -40 64 -52 108
-91 256 -202 259 -194 2 6 8 11 13 11 5 0 17 8 27 18 29 27 195 173 271 238
19 16 42 36 50 44 9 8 68 60 131 114 63 55 117 102 120 106 3 3 16 13 29 22
l23 16 -73 49 c-41 26 -76 51 -79 54 -3 3 -16 12 -30 19 -14 7 -85 53 -159
102 -73 48 -135 88 -138 88 -2 0 -9 5 -16 10 -7 6 -77 53 -157 105 -80 51
-150 98 -157 104 -7 6 -15 11 -19 11 -4 0 -22 11 -40 25 -18 14 -35 25 -37 25
-2 0 -51 31 -108 68 -57 38 -140 91 -184 120 -44 28 -84 55 -90 60 -29 23 -36
20 -85 -40z"/>
</g>
</svg>
